<svg width="400" height="300" xmlns="http://www.w3.org/2000/svg">
  <defs>
    <linearGradient id="bg" x1="0%" y1="0%" x2="100%" y2="100%">
      <stop offset="0%" style="stop-color:#fce4ec;stop-opacity:1" />
      <stop offset="100%" style="stop-color:#f8bbd9;stop-opacity:1" />
    </linearGradient>
  </defs>
  <rect width="100%" height="100%" fill="url(#bg)"/>
  <g transform="translate(200,150)">
    <!-- Boot outline -->
    <path d="M-30,-60 L-20,-80 L20,-80 L30,-60 L35,-20 L35,20 L25,40 L-35,40 L-35,-20 Z" fill="#795548" opacity="0.8"/>
    <path d="M-25,-55 L-15,-70 L15,-70 L25,-55 L28,-25 L28,15 L20,35 L-30,35 L-30,-25 Z" fill="#8d6e63"/>
    <!-- Boot details -->
    <rect x="-25" y="-10" width="50" height="4" fill="#5d4037"/>
    <rect x="-25" y="5" width="50" height="4" fill="#5d4037"/>
    <rect x="-25" y="20" width="50" height="4" fill="#5d4037"/>
    <!-- Heel -->
    <rect x="20" y="25" width="8" height="15" fill="#3e2723"/>
  </g>
  <text x="200" y="250" text-anchor="middle" font-family="Arial, sans-serif" font-size="18" fill="#5d4037" font-weight="bold">Vintage Leather Boots</text>
</svg>
